<svg xmlns="http://www.w3.org/2000/svg" viewBox="0 0 32 32"><defs><style>.cls-1{fill:#f37321;}.cls-2{fill:#fff;}</style></defs><g id="Layer_2" data-name="Layer 2"><g id="Layer_1-2" data-name="Layer 1"><rect class="cls-1" width="32" height="32" rx="2"/><path class="cls-2" d="M9.6,6.66a3.62,3.62,0,0,1-3.66,3.77H4.31v1.93a1,1,0,0,1-1,1h0a1,1,0,0,1-.71-.3,1,1,0,0,1-.29-.71V4.11a1,1,0,0,1,1-1H5.88a3.67,3.67,0,0,1,2.57,1A3.43,3.43,0,0,1,9.6,6.66ZM4.31,8.45H5.94a1.75,1.75,0,0,0,.86-.22,1.67,1.67,0,0,0,.61-.6,1.55,1.55,0,0,0,.23-.86A1.66,1.66,0,0,0,6,5.06H4.31ZM13.2,3.8a5.14,5.14,0,0,1,7,1.87,5,5,0,0,1,.67,2.56,5.13,5.13,0,0,1-9.54,2.57,5.06,5.06,0,0,1-.7-2.57,4.81,4.81,0,0,1,.7-2.56A5,5,0,0,1,13.2,3.8Zm.36,6.65a3.15,3.15,0,0,0,4.44,0,3,3,0,0,0,.9-2.22A3.12,3.12,0,0,0,15.8,5.1h0A3.05,3.05,0,0,0,13.57,6a3,3,0,0,0-.92,2.2A3,3,0,0,0,13.56,10.45ZM29.69,6.66a3.61,3.61,0,0,1-1,2.67A3.53,3.53,0,0,1,26,10.43H24.38v1.93a1,1,0,0,1-.29.71,1,1,0,0,1-1.4,0h0a1,1,0,0,1-.29-.71V4.11a.94.94,0,0,1,.29-.69,1,1,0,0,1,.72-.31H26a3.71,3.71,0,0,1,2.56,1A3.49,3.49,0,0,1,29.69,6.66ZM24.38,8.45H26a1.69,1.69,0,0,0,.85-.23,1.73,1.73,0,0,0,.62-.61,1.62,1.62,0,0,0,.22-.86A1.71,1.71,0,0,0,26,5H24.38ZM11.55,27.5a1,1,0,0,1-.14.95,1.08,1.08,0,0,1-.86.44,1.09,1.09,0,0,1-1-.71L6.81,19.93,4.52,26.77a2.69,2.69,0,0,1-.16.29.8.8,0,0,1-.23.22,2.1,2.1,0,0,1-.3.15,1.27,1.27,0,0,1-.34.05A1,1,0,0,1,2.64,27a1.07,1.07,0,0,1-.15-.95l3-8.81a.94.94,0,0,1,.38-.52,1.07,1.07,0,0,1,.63-.2h.68a1.21,1.21,0,0,1,.64.2.92.92,0,0,1,.36.54ZM18.2,24l1.3,1.76a1,1,0,0,1,.1,1.12,1.09,1.09,0,0,1-.37.43,1.22,1.22,0,0,1-.56.17,1.1,1.1,0,0,1-.86-.42l-2-2.72h-.88v2.06a1,1,0,0,1-.32.75,1.06,1.06,0,0,1-1.49,0h0a1,1,0,0,1-.31-.75v-8.8a1,1,0,0,1,.29-.74,1.06,1.06,0,0,1,.77-.31h2.71a3.9,3.9,0,0,1,2.8,1.13,3.75,3.75,0,0,1,1.19,2.74,3.83,3.83,0,0,1-.63,2.15A3.61,3.61,0,0,1,18.23,24Zm-1.58-1.78a1.78,1.78,0,0,0,1.76-1.78,1.75,1.75,0,0,0-.24-.89,1.79,1.79,0,0,0-1.55-.86H14.88v3.57Zm11.84-5.69a1.07,1.07,0,0,1,.76.32,1,1,0,0,1,.3.75,1,1,0,0,1-1,1.06h-2v7.74a1.08,1.08,0,0,1-1.06,1.07h0a1.09,1.09,0,0,1-.77-.31,1,1,0,0,1-.3-.76v-7.7h-2a1,1,0,0,1-.75-.31,1,1,0,0,1-.32-.75,1,1,0,0,1,.32-.74,1,1,0,0,1,.75-.31Z"/></g></g></svg>