<?xml version="1.0" encoding="utf-8"?>
<svg version="1.1" xmlns="http://www.w3.org/2000/svg" xmlns:xlink="http://www.w3.org/1999/xlink" x="0px" y="0px" viewBox="0 0 434.3 50" style="enable-background:new 0 0 434.3 50;" xml:space="preserve">
	<path d="M81.7,3.3C79.6,1.2,76.6,0,73.6,0h-7.9c-0.8,0-1.6,0.3-2.2,1c-0.6,0.6-0.9,1.4-0.9,2.2v25.7c0,0.8,0.3,1.6,0.9,2.2 c1.2,1.2,3.2,1.2,4.4,0c0.6-0.6,0.9-1.4,0.9-2.2v-6h5.1c3.1,0.1,6.1-1.2,8.2-3.4c2.2-2.2,3.4-5.2,3.2-8.3 C85.2,8.1,83.9,5.3,81.7,3.3z M78.4,14.1c-0.5,0.8-1.1,1.4-1.9,1.9c-0.8,0.5-1.7,0.7-2.6,0.7h-5.1V6.2h5.1c1.4,0,2.7,0.5,3.7,1.5 c1,1,1.6,2.3,1.5,3.7C79.1,12.4,78.8,13.3,78.4,14.1z M19.2,3.3C17,1.2,14.1,0,11.1,0H3.1C2.3,0,1.5,0.4,0.9,1C0.3,1.6,0,2.4,0,3.2 v25.7c0,0.8,0.3,1.6,0.9,2.2C1.5,31.7,2.3,32,3.1,32c0.8,0,1.6-0.3,2.2-0.9c0.6-0.6,0.9-1.4,0.9-2.2v-6h5.1c3.1,0.1,6.1-1.2,8.2-3.4 c2.2-2.2,3.4-5.2,3.2-8.3C22.7,8.1,21.4,5.3,19.2,3.3z M15.8,14.1c-0.5,0.8-1.1,1.4-1.9,1.9c-0.8,0.4-1.7,0.7-2.6,0.7H6.2V6.2h5.1 c1.4,0,2.7,0.5,3.7,1.5c1,1,1.6,2.3,1.5,3.8C16.5,12.4,16.3,13.3,15.8,14.1z M110.6,32c0.3,0.9,0.2,2-0.4,2.8 c-0.6,0.8-1.5,1.3-2.5,1.3c-1.3,0-2.5-0.8-2.9-2.1l-8-24.1l-6.7,20c-0.1,0.3-0.3,0.6-0.5,0.9c-0.2,0.3-0.4,0.5-0.7,0.7 c-0.3,0.2-0.6,0.3-0.9,0.4C87.7,32,87.3,32,87,32c-1,0-2-0.4-2.5-1.3c-0.6-0.8-0.8-1.9-0.5-2.8l8.7-25.8c0.2-0.6,0.6-1.2,1.1-1.5 C94.3,0.2,95,0,95.7,0h2c0.7,0,1.3,0.2,1.8,0.6c0.5,0.4,0.9,0.9,1.1,1.6L110.6,32z M49.9,2.2c-5-2.8-11-2.8-16,0 c-2.4,1.4-4.4,3.4-5.8,5.8c-1.4,2.4-2.2,5.2-2.2,8c0,2.8,0.7,5.6,2.1,8c4.4,7.6,14.2,10.3,21.9,5.8c2.4-1.4,4.4-3.4,5.8-5.8 c1.4-2.4,2.1-5.2,2.1-8c0-2.8-0.7-5.6-2.1-8C54.4,5.6,52.4,3.6,49.9,2.2z M48.9,22.9c-1.8,1.9-4.3,2.9-6.9,2.8c-2.6,0-5.1-1-6.9-2.8 c-1.9-1.8-2.9-4.3-2.9-6.9c0-2.6,1-5.1,2.9-6.9c1.8-1.9,4.3-2.9,6.9-2.9c2.6,0,5.1,1,6.8,2.8c1.9,1.8,2.9,4.3,2.9,6.9 C51.8,18.6,50.7,21.1,48.9,22.9z M312.3,31.1c-0.6,0.6-1.4,0.9-2.2,0.9H296c-0.8,0-1.6-0.3-2.2-0.9c-0.6-0.6-0.9-1.4-0.9-2.2V3.2 c0-0.8,0.3-1.6,0.9-2.2c1.2-1.2,3.2-1.2,4.4,0c0,0,0,0,0,0c0.6,0.6,0.9,1.4,0.9,2.2v22.6h11.1c0.8,0,1.6,0.3,2.2,0.9 C313.6,27.9,313.6,29.9,312.3,31.1z M263.2,5.3c-0.6,0.6-1.4,0.9-2.2,0.9h-5.7v22.6c0,0.8-0.3,1.6-0.9,2.2c-0.6,0.6-1.4,0.9-2.2,0.9 c-0.8,0-1.6-0.3-2.2-0.9c-0.6-0.6-0.9-1.4-0.9-2.2V6.2h-5.7c-0.9,0-1.7-0.3-2.3-0.9c-0.6-0.6-0.9-1.4-0.9-2.2c0-0.8,0.3-1.6,0.9-2.2 c0.6-0.6,1.4-0.9,2.2-0.9L261,0c0.8,0,1.6,0.3,2.2,0.9c0.6,0.6,0.9,1.4,0.9,2.2C264.1,4,263.8,4.8,263.2,5.3z M235.4,28.9 c0,0.8-0.3,1.6-0.9,2.2c-0.6,0.6-1.4,0.9-2.2,0.9h-13.8c-0.8,0-1.6-0.3-2.2-0.9c-0.6-0.6-0.9-1.4-0.9-2.2V3.2c0-0.8,0.3-1.6,0.9-2.2 c0.6-0.6,1.4-0.9,2.2-0.9h13.8c0.8,0,1.6,0.3,2.2,0.9c0.6,0.6,0.9,1.4,0.9,2.2c0,0.8-0.3,1.6-0.9,2.2c-0.6,0.6-1.4,0.9-2.2,0.9 h-10.7v6.7h6.7c1.7,0,3.1,1.4,3.1,3.1c0,1.7-1.4,3.1-3.1,3.1c0,0,0,0,0,0h-6.7v6.7h10.7C234.1,25.8,235.5,27.2,235.4,28.9z M289.4,32c0.3,0.9,0.2,2-0.4,2.8c-0.6,0.8-1.5,1.3-2.5,1.3c-1.3,0-2.5-0.8-2.9-2.1l-8-24.1l-6.7,20.1c-0.1,0.3-0.3,0.6-0.5,0.9 c-0.2,0.3-0.4,0.5-0.7,0.7c-0.3,0.2-0.6,0.3-0.9,0.4c-0.3,0.1-0.6,0.2-0.9,0.2c-1,0-2-0.5-2.5-1.3c-0.6-0.8-0.8-1.9-0.4-2.8 l8.7-25.8c0.2-0.6,0.6-1.2,1.1-1.5c0.5-0.4,1.2-0.6,1.8-0.6h2c0.7,0,1.3,0.2,1.9,0.6c0.5,0.4,0.9,0.9,1.1,1.6L289.4,32z M209.9,0.9 c0.6,0.6,0.9,1.4,0.9,2.2v25.8c0,0.8-0.3,1.6-0.9,2.2c-1.2,1.2-3.2,1.2-4.4,0c-0.6-0.6-0.9-1.4-0.9-2.2V17l-4.9,13 c-0.2,0.6-0.6,1.1-1.2,1.5c-0.5,0.4-1.1,0.6-1.8,0.6h-2.1c-1.3,0-2.4-0.8-2.9-2l-5-13v11.9c0,0.8-0.3,1.6-0.9,2.2 c-1.2,1.2-3.2,1.2-4.4,0c0,0,0,0,0,0c-0.6-0.6-0.9-1.4-0.9-2.2V3.1c0-0.8,0.3-1.6,0.9-2.2c0.6-0.6,1.4-0.9,2.3-0.9h1.2 c0.6,0,1.2,0.2,1.7,0.6c0.5,0.4,0.9,0.9,1.2,1.4l7.9,20.9L203.6,2c0.2-0.6,0.7-1.1,1.2-1.4c0.5-0.4,1.1-0.6,1.8-0.6h1.2 C208.5,0,209.3,0.3,209.9,0.9z M162.2,1c0.6,0.6,0.9,1.4,0.9,2.2c0,0.8-0.3,1.6-0.9,2.2c-0.6,0.6-1.4,0.9-2.2,0.9h-5.7v22.6 c0,1.7-1.4,3.1-3.1,3.1c0,0-0.1,0-0.1,0c-0.8,0-1.6-0.3-2.2-0.9c-0.6-0.6-0.9-1.4-0.9-2.2V6.2h-5.7c-0.8,0-1.6-0.3-2.2-0.9 c-0.6-0.6-0.9-1.4-0.9-2.2c0-0.8,0.3-1.6,0.9-2.2c0.6-0.6,1.4-0.9,2.2-0.9L160,0C160.8,0,161.6,0.4,162.2,1z M125.1,0.1h-7.9 c-0.8,0-1.6,0.3-2.2,0.9c-0.6,0.6-0.9,1.4-0.9,2.2v25.7c0,0.8,0.3,1.6,0.9,2.2c0,0,0,0,0,0c1.2,1.2,3.2,1.2,4.4,0 c0.6-0.6,0.9-1.4,0.9-2.2v-6h2.7l5.9,7.9c0.6,0.8,1.5,1.3,2.5,1.2c0.6,0,1.1-0.2,1.6-0.5c0.5-0.3,0.9-0.8,1.1-1.3 c0.6-1,0.5-2.3-0.3-3.3l-3.8-5.1c2-0.9,3.7-2.3,4.9-4.2c1.2-1.9,1.9-4.1,1.9-6.3c0-3-1.3-5.9-3.5-8C131.1,1.2,128.2,0,125.1,0.1z M129,15.1c-1,1-2.3,1.5-3.6,1.5h-5.2V6.2h5.1c1.9,0,3.6,1,4.5,2.6c0.5,0.8,0.7,1.7,0.7,2.6C130.6,12.9,130,14.2,129,15.1z" />
</svg>
